<?xml version="1.0" encoding="UTF-8" standalone="no"?>
<svg width="456" height="456" viewBox="0 0 456 456" version="1.1" xmlns="http://www.w3.org/2000/svg">
    <g transform="translate(58 78)">
        <path d="M32 244 L284 244 C314 244 330 233 336 220 L340 206 L114 206 C108 206 101 204 96 200 L78 188 L30 188 C18 188 8 196 6 208 L2 226 C0 236 10 244 32 244 Z"
              fill="#e7f4ff" />
        <rect x="114" y="158" width="152" height="42" rx="12" ry="12" fill="#d5e9f8" />
        <rect x="134" y="126" width="84" height="32" rx="8" ry="8" fill="#c6dff2" />
        <rect x="172" y="96" width="12" height="30" fill="#d9ecfb" />
        <rect x="176" y="76" width="4" height="20" fill="#d9ecfb" />
        <path d="M180 80 L224 98 L180 112 Z" fill="#ffcf66" />
        <circle cx="162" cy="178" r="5" fill="#8aa8c3" />
        <circle cx="188" cy="178" r="5" fill="#8aa8c3" />
        <circle cx="214" cy="178" r="5" fill="#8aa8c3" />
        <circle cx="240" cy="178" r="5" fill="#8aa8c3" />
    </g>
</svg>
